<svg viewBox="309.9534 354.549 178.3196 24.8265" width="24" height="24" xmlns="http://www.w3.org/2000/svg">
  <g transform="matrix(1.5960700511932373, 0, 0, 1.318127989768982, 306.7612609863281, 354.19921875)">
    <g>
      <!-- Apply opacity and fill color to match the first SVG -->
      <path d="M5,1.1v2H4c-1.1,0-2,0.9-2,2v12c0,1.1,0.9,2,2,2h12.2c1.1,0,2-0.9,2-2v-12c0-1.1-0.9-2-2-2h-1v-2h-2v2H7v-2C7,1.1,5,1.1,5,1.1z M4,8.1h12.2v9H4V8.1z" style="fill: #637381; opacity: 0.4;"/>
      <!-- Removed unnecessary style attribute from the second path -->
      <path d="M13.7,16.3l-2.4-1.4L9,16.3l0.6-2.7l-2.1-1.8l2.8-0.2L11.4,9l1.1,2.5l2.8,0.3l-2.1,1.8L13.7,16.3z" fill="#637381"/>
    </g>
  </g>
  <!-- Removed unnecessary <rect> element -->
</svg>
